<svg xmlns="http://www.w3.org/2000/svg" viewBox="0 0 560 420" role="img" aria-labelledby="title desc">
  <title id="title">Learning map</title>
  <desc id="desc">Connected note cards representing a personal learning path.</desc>
  <rect width="560" height="420" rx="28" fill="#fbfaf7"/>
  <path d="M100 98h150M285 98h120M170 162v78M370 158l-78 78M228 278h134" stroke="#ded8ca" stroke-width="8" stroke-linecap="round"/>
  <g fill="#fff" stroke="#17211b" stroke-width="4">
    <rect x="56" y="54" width="166" height="88" rx="10"/>
    <rect x="264" y="52" width="160" height="92" rx="10"/>
    <rect x="95" y="235" width="170" height="96" rx="10"/>
    <rect x="330" y="226" width="164" height="100" rx="10"/>
  </g>
  <g fill="#17211b">
    <rect x="82" y="82" width="96" height="10" rx="5"/>
    <rect x="82" y="104" width="62" height="8" rx="4" opacity=".45"/>
    <rect x="292" y="80" width="86" height="10" rx="5"/>
    <rect x="292" y="103" width="104" height="8" rx="4" opacity=".45"/>
    <rect x="124" y="266" width="100" height="10" rx="5"/>
    <rect x="124" y="290" width="70" height="8" rx="4" opacity=".45"/>
    <rect x="358" y="258" width="82" height="10" rx="5"/>
    <rect x="358" y="282" width="100" height="8" rx="4" opacity=".45"/>
  </g>
  <circle cx="250" cy="98" r="14" fill="#a8583d"/>
  <circle cx="170" cy="190" r="14" fill="#536b48"/>
  <circle cx="292" cy="236" r="14" fill="#2b6c7d"/>
  <circle cx="404" cy="98" r="14" fill="#a8583d"/>
</svg>
